<?xml version="1.0" encoding="utf-8"?>
<!-- Generator: Adobe Illustrator 26.2.1, SVG Export Plug-In . SVG Version: 6.00 Build 0)  -->
<svg version="1.1" id="图层_1" xmlns="http://www.w3.org/2000/svg" xmlns:xlink="http://www.w3.org/1999/xlink" x="0px" y="0px"
	 viewBox="0 0 429.4 429.4" style="enable-background:new 0 0 429.4 429.4;" xml:space="preserve">
<style type="text/css">
	.st0{fill:#FFFFFF;}
	.st1{fill:#FF592C;}
	.st2{fill:#E2C497;}
</style>
<rect x="-5.7" y="-5.7" width="440.9" height="440.9"/>
<g>
	<path class="st0" d="M92.9,183c0-0.2-0.2-0.2-0.2,0l-1.4,91.8c0,0.2,0,0.3,0.1,0.4l1.2,1.7c0.1,0.1,0.2,0.1,0.3,0l1.3-1.7
		c0.1-0.1,0.1-0.3,0.1-0.4L92.9,183z"/>
	<path class="st1" d="M113.1,197.3l-16.1,30.5c-0.1,0.2-0.4,0.1-0.4-0.1v-62.2c0-0.1,0.1-0.1,0.1,0l16.4,31.1
		C113.2,196.8,113.2,197.1,113.1,197.3z"/>
	<path class="st2" d="M72.5,197.3l16.1,30.5c0.1,0.2,0.4,0.1,0.4-0.1v-62.2c0-0.1-0.1-0.1-0.1,0l-16.4,31.1
		C72.4,196.8,72.4,197.1,72.5,197.3z"/>
	<ellipse class="st0" cx="92.8" cy="160" rx="2.9" ry="2.9"/>
	<path class="st0" d="M97.8,235.2v35.7c0,0.3,0.3,0.4,0.5,0.2l32.2-33.7c0.4-0.4,0.4-0.9,0.2-1.4l-16.1-32.7c-0.1-0.1-0.3-0.1-0.3,0
		L98.1,234C97.9,234.4,97.8,234.8,97.8,235.2z"/>
	<path class="st0" d="M87.8,235.2v35.7c0,0.3-0.3,0.4-0.5,0.2L55,237.4c-0.4-0.4-0.4-0.9-0.2-1.4L71,203.2c0.1-0.1,0.3-0.1,0.3,0
		L87.5,234C87.7,234.4,87.8,234.8,87.8,235.2z"/>
	<g>
		<g>
			<path class="st0" d="M167.4,218.8c2.4,0,4.4,0.8,6.1,2.3c1.7,1.5,2.5,3.4,2.5,5.5v11.1c0,2.2-0.8,4-2.5,5.5
				c-1.7,1.5-3.7,2.3-6.1,2.3h-20.9c-2.4,0-4.4-0.8-6.1-2.3c-1.7-1.5-2.5-3.4-2.5-5.5v-11.1c0-2.2,0.8-4,2.5-5.5
				c1.7-1.5,3.7-2.3,6.1-2.3H167.4z M146.2,225.7c-0.7,0.6-1,1.3-1,2.2v8.6c0,0.9,0.3,1.6,1,2.2c0.7,0.6,1.5,0.9,2.4,0.9h16.6
				c1,0,1.8-0.3,2.4-0.9c0.7-0.6,1-1.4,1-2.2v-8.6c0-0.9-0.3-1.6-1-2.2c-0.6-0.6-1.5-0.9-2.4-0.9h-16.6
				C147.7,224.8,146.9,225.1,146.2,225.7z"/>
			<path class="st0" d="M205.8,218.8c2.2,0,4.1,0.7,5.7,2.1c1.6,1.4,2.4,3.2,2.3,5.2c0,1-0.2,2-0.7,3c-0.5,0.9-1.1,1.7-1.9,2.4
				c1.3,0.6,2.3,1.6,3.1,2.7c0.8,1.2,1.2,2.4,1.2,3.8c0,2.1-0.8,3.8-2.4,5.3c-1.6,1.4-3.5,2.2-5.8,2.2h-27.9v-26.7H205.8z
				 M186.7,229.7h19.9v-5.2h-19.9V229.7z M186.7,239.9h20v-5.2h-20V239.9z"/>
			<path class="st0" d="M252,218.8v5.9h-25.7v4.4h22.2v5.8h-22.2v4.6H252v5.9h-33v-26.7H252z"/>
			<path class="st0" d="M255.5,245.5v-26.7h7.3v20.7h24.3v5.9H255.5z"/>
			<path class="st0" d="M297.9,218.8v26.7h-7.3v-26.7H297.9z"/>
			<path class="st0" d="M327.3,218.8c2.5,0,4.5,0.8,6.2,2.4c1.7,1.6,2.6,3.5,2.6,5.7v0.1H329c0-0.1,0-0.1,0-0.1
				c0-0.6-0.2-1.1-0.7-1.5c-0.4-0.4-1-0.6-1.6-0.6h-15.2c-0.6,0-1.2,0.2-1.6,0.6c-0.4,0.4-0.6,0.9-0.6,1.4c0,0.6,0.2,1.1,0.7,1.5
				c0.4,0.4,1,0.6,1.6,0.6c1.8,0,4.6,0,8.3,0c3.7,0,6.5,0,8.3,0c2.5,0,4.7,0.8,6.4,2.4c1.8,1.6,2.7,3.6,2.6,5.9
				c0,2.3-0.9,4.3-2.7,5.9c-1.7,1.6-3.9,2.4-6.4,2.4h-17.7c-2.5,0-4.6-0.8-6.4-2.4c-1.8-1.6-2.6-3.6-2.6-5.9h6.8v0
				c0,0.6,0.3,1.2,0.8,1.7c0.5,0.5,1.1,0.7,1.8,0.7h16.7c0.7,0,1.3-0.3,1.8-0.7c0.5-0.5,0.7-1,0.7-1.7c0-0.7-0.3-1.2-0.8-1.7
				c-0.5-0.5-1.1-0.7-1.8-0.7h-17.2c-2.4,0-4.5-0.8-6.2-2.4c-1.7-1.6-2.6-3.5-2.6-5.7c0-2.2,0.9-4.1,2.6-5.6
				c1.7-1.5,3.8-2.4,6.2-2.4H327.3z"/>
			<path class="st0" d="M348.1,218.8v11.5l17.8-11.5h12l-20.4,12.5l21.9,14.2h-12l-19.3-13.1v13.1h-7.3v-26.7H348.1z"/>
		</g>
		<rect x="290.6" y="212.2" class="st1" width="7.3" height="4.3"/>
	</g>
</g>
<rect x="40.4" y="32.8" class="st2" width="62" height="62"/>
<rect x="119.7" y="32.8" class="st1" width="62" height="62"/>
<g>
	<g>
		<path class="st0" d="M42.6,107.3h5.1v0.8h-5.9v-8.4h5.8v0.8h-4.9V107.3z M42.5,103.4h4.4v0.8h-4.4V103.4z"/>
		<path class="st0" d="M48.8,108v-0.6l3.5-3.4c0.3-0.3,0.6-0.6,0.7-0.8s0.3-0.5,0.3-0.7s0.1-0.4,0.1-0.6c0-0.5-0.2-0.9-0.5-1.2
			c-0.3-0.3-0.8-0.4-1.5-0.4c-0.5,0-0.9,0.1-1.3,0.2c-0.4,0.2-0.7,0.4-1,0.7l-0.6-0.5c0.3-0.4,0.7-0.7,1.3-0.9
			c0.5-0.2,1.1-0.3,1.7-0.3c0.6,0,1.1,0.1,1.5,0.3c0.4,0.2,0.7,0.4,1,0.8c0.2,0.3,0.3,0.7,0.3,1.2c0,0.3,0,0.5-0.1,0.8
			c-0.1,0.3-0.2,0.5-0.4,0.8s-0.5,0.6-0.9,1l-3.2,3.1l-0.2-0.3h5.2v0.8H48.8z"/>
		<path class="st0" d="M60.2,108.1c-0.6,0-1.2-0.1-1.8-0.3s-1-0.5-1.4-0.9c-0.4-0.4-0.7-0.8-0.9-1.4c-0.2-0.5-0.3-1.1-0.3-1.7
			c0-0.6,0.1-1.2,0.3-1.7c0.2-0.5,0.5-1,0.9-1.4c0.4-0.4,0.9-0.7,1.4-0.9c0.5-0.2,1.1-0.3,1.8-0.3c0.6,0,1.2,0.1,1.7,0.3
			s1,0.5,1.4,0.9l-0.6,0.6c-0.3-0.4-0.7-0.6-1.1-0.8c-0.4-0.2-0.9-0.2-1.3-0.2c-0.5,0-1,0.1-1.4,0.3c-0.4,0.2-0.8,0.4-1.1,0.7
			c-0.3,0.3-0.6,0.7-0.8,1.1c-0.2,0.4-0.3,0.9-0.3,1.4c0,0.5,0.1,1,0.3,1.4c0.2,0.4,0.4,0.8,0.8,1.1c0.3,0.3,0.7,0.6,1.1,0.7
			c0.4,0.2,0.9,0.3,1.4,0.3c0.5,0,0.9-0.1,1.3-0.2c0.4-0.2,0.8-0.4,1.1-0.8l0.6,0.6c-0.4,0.4-0.8,0.7-1.4,0.9
			C61.4,108,60.8,108.1,60.2,108.1z"/>
		<path class="st0" d="M64.3,105.8v-0.6l4.5-5.6h1l-4.4,5.6l-0.5-0.1h6.8v0.8H64.3z M69,108v-2.2l0-0.8v-1.9h0.8v4.9H69z"/>
		<path class="st0" d="M75,99.6c0.7,0,1.4,0.2,1.9,0.5c0.5,0.3,0.9,0.8,1.2,1.4s0.4,1.4,0.4,2.3c0,0.9-0.2,1.7-0.5,2.4
			c-0.3,0.6-0.8,1.1-1.4,1.5c-0.6,0.3-1.2,0.5-2,0.5c-0.4,0-0.7,0-1.1-0.1c-0.3-0.1-0.6-0.2-0.9-0.3l0.3-0.7
			c0.2,0.1,0.5,0.2,0.8,0.3c0.3,0.1,0.6,0.1,0.9,0.1c0.9,0,1.6-0.3,2.2-0.9c0.5-0.6,0.8-1.4,0.8-2.6c0-0.2,0-0.4,0-0.7
			c0-0.3-0.1-0.5-0.1-0.8l0.3,0.2c-0.1,0.4-0.3,0.8-0.5,1.1c-0.3,0.3-0.6,0.5-1,0.7c-0.4,0.2-0.8,0.2-1.3,0.2c-0.6,0-1-0.1-1.5-0.3
			c-0.4-0.2-0.8-0.5-1-0.9c-0.2-0.4-0.4-0.8-0.4-1.3c0-0.5,0.1-1,0.4-1.4c0.2-0.4,0.6-0.7,1-0.9C74,99.7,74.4,99.6,75,99.6z
			 M75,100.3c-0.4,0-0.8,0.1-1.1,0.2s-0.5,0.4-0.7,0.6c-0.2,0.3-0.3,0.6-0.3,1c0,0.6,0.2,1,0.6,1.3c0.4,0.3,0.9,0.5,1.5,0.5
			c0.4,0,0.8-0.1,1.1-0.2c0.3-0.2,0.6-0.4,0.8-0.7c0.2-0.3,0.3-0.6,0.3-0.9c0-0.3-0.1-0.6-0.3-0.9s-0.4-0.5-0.7-0.7
			S75.5,100.3,75,100.3z"/>
		<path class="st0" d="M81.2,108l3.6-8l0.3,0.4h-5.2l0.4-0.4v2h-0.9v-2.3h6.2v0.6l-3.5,7.8H81.2z"/>
	</g>
</g>
<g>
	<g>
		<path class="st0" d="M121.9,108H121v-8.4h5.8v0.8h-4.9V108z M121.8,103.7h4.4v0.8h-4.4V103.7z"/>
		<path class="st0" d="M129.5,108h-0.9v-8.4h5.8v0.8h-4.9V108z M129.4,103.7h4.4v0.8h-4.4V103.7z"/>
		<path class="st0" d="M138.1,108.1c-0.6,0-1.2-0.1-1.7-0.3c-0.5-0.2-1-0.5-1.3-0.8l0.4-0.7c0.3,0.3,0.6,0.5,1.1,0.7s1,0.3,1.5,0.3
			c0.7,0,1.3-0.2,1.6-0.5s0.6-0.7,0.6-1.2c0-0.4-0.1-0.7-0.3-0.9c-0.2-0.3-0.5-0.5-0.9-0.6c-0.4-0.1-1-0.2-1.7-0.2h-1.8l0.4-4.2h4.6
			v0.8h-4.2l0.4-0.4l-0.4,3.5l-0.4-0.4h1.6c0.8,0,1.5,0.1,2,0.3s0.9,0.5,1.1,0.9c0.2,0.4,0.3,0.8,0.3,1.3c0,0.5-0.1,0.9-0.3,1.3
			c-0.2,0.4-0.6,0.7-1,0.9C139.4,108,138.8,108.1,138.1,108.1z"/>
		<path class="st0" d="M144.9,99.6c0.7,0,1.4,0.2,1.9,0.5c0.5,0.3,0.9,0.8,1.2,1.4s0.4,1.4,0.4,2.3c0,0.9-0.2,1.7-0.5,2.4
			c-0.3,0.6-0.8,1.1-1.4,1.5c-0.6,0.3-1.2,0.5-2,0.5c-0.4,0-0.7,0-1.1-0.1c-0.3-0.1-0.6-0.2-0.9-0.3l0.3-0.7
			c0.2,0.1,0.5,0.2,0.8,0.3c0.3,0.1,0.6,0.1,0.9,0.1c0.9,0,1.6-0.3,2.2-0.9c0.5-0.6,0.8-1.4,0.8-2.6c0-0.2,0-0.4,0-0.7
			c0-0.3-0.1-0.5-0.1-0.8l0.3,0.2c-0.1,0.4-0.3,0.8-0.5,1.1c-0.3,0.3-0.6,0.5-1,0.7c-0.4,0.2-0.8,0.2-1.3,0.2c-0.6,0-1-0.1-1.5-0.3
			c-0.4-0.2-0.8-0.5-1-0.9c-0.2-0.4-0.4-0.8-0.4-1.3c0-0.5,0.1-1,0.4-1.4c0.2-0.4,0.6-0.7,1-0.9C143.9,99.7,144.4,99.6,144.9,99.6z
			 M144.9,100.3c-0.4,0-0.8,0.1-1.1,0.2s-0.5,0.4-0.7,0.6c-0.2,0.3-0.3,0.6-0.3,1c0,0.6,0.2,1,0.6,1.3c0.4,0.3,0.9,0.5,1.5,0.5
			c0.4,0,0.8-0.1,1.1-0.2c0.3-0.2,0.6-0.4,0.8-0.7c0.2-0.3,0.3-0.6,0.3-0.9c0-0.3-0.1-0.6-0.3-0.9s-0.4-0.5-0.7-0.7
			S145.4,100.3,144.9,100.3z"/>
		<path class="st0" d="M149.4,108v-0.6l3.5-3.4c0.3-0.3,0.6-0.6,0.7-0.8s0.3-0.5,0.3-0.7s0.1-0.4,0.1-0.6c0-0.5-0.2-0.9-0.5-1.2
			c-0.3-0.3-0.8-0.4-1.5-0.4c-0.5,0-0.9,0.1-1.3,0.2c-0.4,0.2-0.7,0.4-1,0.7l-0.6-0.5c0.3-0.4,0.7-0.7,1.3-0.9
			c0.5-0.2,1.1-0.3,1.7-0.3c0.6,0,1.1,0.1,1.5,0.3c0.4,0.2,0.7,0.4,1,0.8c0.2,0.3,0.3,0.7,0.3,1.2c0,0.3,0,0.5-0.1,0.8
			c-0.1,0.3-0.2,0.5-0.4,0.8s-0.5,0.6-0.9,1l-3.2,3.1l-0.2-0.3h5.2v0.8H149.4z"/>
		<path class="st0" d="M160.8,108.1c-0.6,0-1.2-0.1-1.8-0.3s-1-0.5-1.4-0.9c-0.4-0.4-0.7-0.8-0.9-1.4c-0.2-0.5-0.3-1.1-0.3-1.7
			c0-0.6,0.1-1.2,0.3-1.7c0.2-0.5,0.5-1,0.9-1.4c0.4-0.4,0.9-0.7,1.4-0.9c0.5-0.2,1.1-0.3,1.8-0.3c0.6,0,1.2,0.1,1.7,0.3
			s1,0.5,1.4,0.9l-0.6,0.6c-0.3-0.4-0.7-0.6-1.1-0.8c-0.4-0.2-0.9-0.2-1.3-0.2c-0.5,0-1,0.1-1.4,0.3c-0.4,0.2-0.8,0.4-1.1,0.7
			c-0.3,0.3-0.6,0.7-0.8,1.1c-0.2,0.4-0.3,0.9-0.3,1.4c0,0.5,0.1,1,0.3,1.4c0.2,0.4,0.4,0.8,0.8,1.1c0.3,0.3,0.7,0.6,1.1,0.7
			c0.4,0.2,0.9,0.3,1.4,0.3c0.5,0,0.9-0.1,1.3-0.2c0.4-0.2,0.8-0.4,1.1-0.8l0.6,0.6c-0.4,0.4-0.8,0.7-1.4,0.9
			C162,108,161.4,108.1,160.8,108.1z"/>
	</g>
</g>
</svg>
