<?xml version="1.0" encoding="utf-8"?>
<!-- Generator: Adobe Illustrator 26.2.1, SVG Export Plug-In . SVG Version: 6.00 Build 0)  -->
<svg version="1.1" id="图层_1" xmlns="http://www.w3.org/2000/svg" xmlns:xlink="http://www.w3.org/1999/xlink" x="0px" y="0px"
	 viewBox="0 0 429.4 429.4" style="enable-background:new 0 0 429.4 429.4;" xml:space="preserve">
<style type="text/css">
	.st0{fill:#FFFFFF;}
	.st1{fill:#FF592C;}
	.st2{fill:#E2C497;}
</style>
<rect x="-5.7" y="-5.7" width="440.9" height="440.9"/>
<g>
	<path class="st0" d="M92.9,183c0-0.2-0.2-0.2-0.2,0l-1.4,91.8c0,0.2,0,0.3,0.1,0.4l1.2,1.7c0.1,0.1,0.2,0.1,0.3,0l1.3-1.7
		c0.1-0.1,0.1-0.3,0.1-0.4L92.9,183z"/>
	<path class="st1" d="M113.1,197.3l-16.1,30.5c-0.1,0.2-0.4,0.1-0.4-0.1v-62.2c0-0.1,0.1-0.1,0.1,0l16.4,31.1
		C113.2,196.8,113.2,197.1,113.1,197.3z"/>
	<path class="st2" d="M72.5,197.3l16.1,30.5c0.1,0.2,0.4,0.1,0.4-0.1v-62.2c0-0.1-0.1-0.1-0.1,0l-16.4,31.1
		C72.4,196.8,72.4,197.1,72.5,197.3z"/>
	<ellipse class="st0" cx="92.8" cy="160" rx="2.9" ry="2.9"/>
	<path class="st0" d="M97.8,235.2v35.7c0,0.3,0.3,0.4,0.5,0.2l32.2-33.7c0.4-0.4,0.4-0.9,0.2-1.4l-16.1-32.7c-0.1-0.1-0.3-0.1-0.3,0
		L98.1,234C97.9,234.4,97.8,234.8,97.8,235.2z"/>
	<path class="st0" d="M87.8,235.2v35.7c0,0.3-0.3,0.4-0.5,0.2L55,237.4c-0.4-0.4-0.4-0.9-0.2-1.4L71,203.2c0.1-0.1,0.3-0.1,0.3,0
		L87.5,234C87.7,234.4,87.8,234.8,87.8,235.2z"/>
	<g>
		<g>
			<path class="st0" d="M167.4,218.8c2.4,0,4.4,0.8,6.1,2.3c1.7,1.5,2.5,3.4,2.5,5.5v11.1c0,2.2-0.8,4-2.5,5.5
				c-1.7,1.5-3.7,2.3-6.1,2.3h-20.9c-2.4,0-4.4-0.8-6.1-2.3c-1.7-1.5-2.5-3.4-2.5-5.5v-11.1c0-2.2,0.8-4,2.5-5.5
				c1.7-1.5,3.7-2.3,6.1-2.3H167.4z M146.2,225.7c-0.7,0.6-1,1.3-1,2.2v8.6c0,0.9,0.3,1.6,1,2.2c0.7,0.6,1.5,0.9,2.4,0.9h16.6
				c1,0,1.8-0.3,2.4-0.9c0.7-0.6,1-1.4,1-2.2v-8.6c0-0.9-0.3-1.6-1-2.2c-0.6-0.6-1.5-0.9-2.4-0.9h-16.6
				C147.7,224.8,146.9,225.1,146.2,225.7z"/>
			<path class="st0" d="M205.8,218.8c2.2,0,4.1,0.7,5.7,2.1c1.6,1.4,2.4,3.2,2.3,5.2c0,1-0.2,2-0.7,3c-0.5,0.9-1.1,1.7-1.9,2.4
				c1.3,0.6,2.3,1.6,3.1,2.7c0.8,1.2,1.2,2.4,1.2,3.8c0,2.1-0.8,3.8-2.4,5.3c-1.6,1.4-3.5,2.2-5.8,2.2h-27.9v-26.7H205.8z
				 M186.7,229.7h19.9v-5.2h-19.9V229.7z M186.7,239.9h20v-5.2h-20V239.9z"/>
			<path class="st0" d="M252,218.8v5.9h-25.7v4.4h22.2v5.8h-22.2v4.6H252v5.9h-33v-26.7H252z"/>
			<path class="st0" d="M255.5,245.5v-26.7h7.3v20.7h24.3v5.9H255.5z"/>
			<path class="st0" d="M297.9,218.8v26.7h-7.3v-26.7H297.9z"/>
			<path class="st0" d="M327.3,218.8c2.5,0,4.5,0.8,6.2,2.4c1.7,1.6,2.6,3.5,2.6,5.7v0.1H329c0-0.1,0-0.1,0-0.1
				c0-0.6-0.2-1.1-0.7-1.5c-0.4-0.4-1-0.6-1.6-0.6h-15.2c-0.6,0-1.2,0.2-1.6,0.6c-0.4,0.4-0.6,0.9-0.6,1.4c0,0.6,0.2,1.1,0.7,1.5
				c0.4,0.4,1,0.6,1.6,0.6c1.8,0,4.6,0,8.3,0c3.7,0,6.5,0,8.3,0c2.5,0,4.7,0.8,6.4,2.4c1.8,1.6,2.7,3.6,2.6,5.9
				c0,2.3-0.9,4.3-2.7,5.9c-1.7,1.6-3.9,2.4-6.4,2.4h-17.7c-2.5,0-4.6-0.8-6.4-2.4c-1.8-1.6-2.6-3.6-2.6-5.9h6.8v0
				c0,0.6,0.3,1.2,0.8,1.7c0.5,0.5,1.1,0.7,1.8,0.7h16.7c0.7,0,1.3-0.3,1.8-0.7c0.5-0.5,0.7-1,0.7-1.7c0-0.7-0.3-1.2-0.8-1.7
				c-0.5-0.5-1.1-0.7-1.8-0.7h-17.2c-2.4,0-4.5-0.8-6.2-2.4c-1.7-1.6-2.6-3.5-2.6-5.7c0-2.2,0.9-4.1,2.6-5.6
				c1.7-1.5,3.8-2.4,6.2-2.4H327.3z"/>
			<path class="st0" d="M348.1,218.8v11.5l17.8-11.5h12l-20.4,12.5l21.9,14.2h-12l-19.3-13.1v13.1h-7.3v-26.7H348.1z"/>
		</g>
		<rect x="290.6" y="212.2" class="st1" width="7.3" height="4.3"/>
	</g>
</g>
</svg>
