<?xml version="1.0" encoding="UTF-8"?>
<svg id="_图层_1" data-name="图层 1" xmlns="http://www.w3.org/2000/svg" viewBox="0 0 192 192">
  <defs>
    <style>
      .cls-1 {
        opacity: .9;
      }

      .cls-1, .cls-2, .cls-3, .cls-4 {
        fill: #fff;
      }

      .cls-2 {
        opacity: .8;
      }

      .cls-3 {
        opacity: .7;
      }
    </style>
  </defs>
  <g>
    <path class="cls-4" d="M44.82,134.72h-14.32v19.73h14.32c5.1,0,9.58-3.16,9.58-9.87s-4.48-9.87-9.58-9.87ZM42.9,150.19h-7.33v-11.22h7.33c3.83,0,6.43.82,6.43,5.61s-2.59,5.61-6.43,5.61Z"/>
    <path class="cls-4" d="M77.79,144.56c0,2.73-.76,5.92-7.33,5.92s-7.33-3.16-7.33-5.92v-9.84h-5.07v9.84c0,6.88,3.72,10.18,12.4,10.18s12.4-3.33,12.4-10.18v-9.84h-5.07v9.84Z"/>
    <path class="cls-4" d="M108.35,143.74c.99-1.1,1.55-2.45,1.55-3.83,0-2.9-1.38-5.19-5.86-5.19h-17.36v19.73h18.04c4.48,0,6.43-2.42,6.43-5.75,0-2.28-1.1-3.92-2.79-4.96ZM91.74,138.38h10.46c1.38,0,2.62,0,2.62,2.03s-1.24,2.06-2.59,2.06h-10.49v-4.09ZM103.47,150.53h-11.73v-4.17h11.73c1.35,0,2.59,0,2.59,2.09s-1.24,2.09-2.59,2.09Z"/>
    <polygon class="cls-4" points="135.63 142.44 119.56 142.44 119.56 134.72 114.49 134.72 114.49 154.45 119.56 154.45 119.56 146.73 135.63 146.73 135.63 154.45 140.7 154.45 140.7 134.72 135.63 134.72 135.63 142.44"/>
    <polygon class="cls-4" points="165.5 138.75 165.5 134.72 144.64 134.72 144.64 154.45 165.5 154.45 165.5 150.42 149.71 150.42 149.71 146.42 165.5 146.42 165.5 142.75 149.71 142.75 149.71 138.75 165.5 138.75"/>
  </g>
  <g>
    <rect class="cls-3" x="59.62" y="104.53" width="11.52" height="11.52"/>
    <rect class="cls-2" x="59.43" y="82.39" width="11.52" height="11.52"/>
    <rect class="cls-2" x="81.6" y="82.39" width="11.52" height="11.52"/>
    <rect class="cls-1" x="59.43" y="59.49" width="11.52" height="11.52"/>
    <rect class="cls-4" x="59.43" y="37.27" width="11.52" height="11.52"/>
    <rect class="cls-1" x="81.6" y="59.49" width="11.52" height="11.52"/>
    <rect class="cls-4" x="81.6" y="37.27" width="11.52" height="11.52"/>
    <path class="cls-4" d="M121.29,76.7c0-9.5-7.7-17.21-17.21-17.21v10.81c3.53,0,6.4,2.86,6.4,6.4s-2.86,6.4-6.4,6.4v10.81c9.5,0,17.21-7.7,17.21-17.21Z"/>
    <path class="cls-4" d="M104.37,37.35v11.51c15.37,0,27.84,12.46,27.84,27.84s-12.42,27.79-27.76,27.83c-.02,0-.04,0-.06,0h-22.6v11.52h22.75s.04,0,.06,0c21.63-.12,39.12-17.69,39.12-39.34s-17.62-39.35-39.35-39.35Z"/>
  </g>
</svg>