<?xml version="1.0" encoding="UTF-8"?>
<svg id="_图层_1" data-name="图层 1" xmlns="http://www.w3.org/2000/svg" viewBox="0 0 343.82 81.49">
  <defs>
    <style>
      .cls-1, .cls-2, .cls-3, .cls-4 {
        fill: #231815;
      }

      .cls-2 {
        opacity: .9;
      }

      .cls-3 {
        opacity: .7;
      }

      .cls-4 {
        opacity: .8;
      }
    </style>
  </defs>
  <rect class="cls-3" x=".2" y="69.58" width="11.92" height="11.92"/>
  <path class="cls-1" d="M131.76,23.21h-25.16v34.67h25.16c8.96,0,16.84-5.55,16.84-17.34s-7.88-17.34-16.84-17.34ZM128.39,50.4h-12.88v-19.71h12.88c6.74,0,11.29,1.44,11.29,9.86s-4.56,9.86-11.29,9.86Z"/>
  <path class="cls-1" d="M189.7,40.49c0,4.8-1.34,10.4-12.88,10.4s-12.88-5.55-12.88-10.4v-17.29h-8.92v17.29c0,12.09,6.54,17.88,21.79,17.88s21.79-5.84,21.79-17.88v-17.29h-8.92v17.29Z"/>
  <path class="cls-1" d="M243.39,39.06c1.73-1.93,2.72-4.31,2.72-6.74,0-5.1-2.43-9.11-10.3-9.11h-30.51v34.67h31.7c7.88,0,11.29-4.26,11.29-10.1,0-4.01-1.93-6.88-4.9-8.72ZM214.21,29.65h18.38c2.43,0,4.61,0,4.61,3.57s-2.18,3.62-4.56,3.62h-18.43v-7.18ZM234.82,50.99h-20.6v-7.33h20.6c2.38,0,4.56,0,4.56,3.67s-2.18,3.67-4.56,3.67Z"/>
  <polygon class="cls-1" points="291.32 36.78 263.09 36.78 263.09 23.21 254.18 23.21 254.18 57.88 263.09 57.88 263.09 44.31 291.32 44.31 291.32 57.88 300.24 57.88 300.24 23.21 291.32 23.21 291.32 36.78"/>
  <polygon class="cls-1" points="343.82 30.29 343.82 23.21 307.16 23.21 307.16 57.88 343.82 57.88 343.82 50.8 316.08 50.8 316.08 43.76 343.82 43.76 343.82 37.32 316.08 37.32 316.08 30.29 343.82 30.29"/>
  <rect class="cls-4" y="46.67" width="11.92" height="11.92"/>
  <rect class="cls-4" x="22.93" y="46.67" width="11.92" height="11.92"/>
  <rect class="cls-2" y="22.99" width="11.92" height="11.92"/>
  <rect class="cls-1" width="11.92" height="11.92"/>
  <rect class="cls-2" x="22.93" y="22.99" width="11.92" height="11.92"/>
  <rect class="cls-1" x="22.93" width="11.92" height="11.92"/>
  <path class="cls-1" d="M63.99,40.79c0-9.83-7.97-17.8-17.8-17.8v11.18c3.66,0,6.62,2.96,6.62,6.62s-2.96,6.62-6.62,6.62v11.18c9.83,0,17.8-7.97,17.8-17.8Z"/>
  <path class="cls-1" d="M46.49.09v11.91c15.9,0,28.79,12.89,28.79,28.79s-12.85,28.75-28.71,28.79c-.02,0-.04,0-.06,0h-23.37v11.92h23.53s.04,0,.06,0c22.37-.13,40.47-18.3,40.47-40.7S68.97.09,46.49.09Z"/>
</svg>