<?xml version="1.0" encoding="UTF-8"?>
<svg id="_图层_1" data-name="图层_1" xmlns="http://www.w3.org/2000/svg" version="1.1" viewBox="0 0 314.43 81.77">
  <!-- Generator: Adobe Illustrator 29.5.1, SVG Export Plug-In . SVG Version: 2.1.0 Build 141)  -->
  <defs>
    <style>
      .st0 {
        fill: #fff;
      }
    </style>
  </defs>
  <g>
    <path class="st0" d="M145.33,23.75v27.74h-7.57v-17.58l-11.3,15.08h-6.5l-11.3-15.08v17.58h-7.57v-27.74h7.86l14.25,19.44,14.25-19.44h7.88Z"/>
    <path class="st0" d="M185.23,23.75v6.18h-26.69v4.54h23.12v6.07h-23.12v4.78h26.69v6.18h-34.26v-27.74h34.26Z"/>
    <path class="st0" d="M217.7,23.75c2.69,0,4.98.86,6.88,2.59,1.9,1.73,2.85,3.81,2.85,6.26,0,2.25-.82,4.21-2.47,5.87-1.65,1.62-3.7,2.57-6.15,2.85l9.03,10.16h-8.81l-8.34-10.06h-12.66v10.06h-7.57v-27.74h27.23ZM198.04,35.31l18.93.02c.89,0,1.6-.26,2.13-.77.57-.53.84-1.17.83-1.94.01-.81-.26-1.46-.83-1.94-.53-.54-1.24-.79-2.13-.75h-18.93v5.39Z"/>
    <path class="st0" d="M254.27,23.75l17.62,27.74h-8.16l-3.83-6.07h-18.77l-3.87,6.07h-8.14l17.62-27.74h7.53ZM244.86,39.54h11.3l-5.63-8.91-5.67,8.91Z"/>
    <path class="st0" d="M281.95,23.75v11.91l18.49-11.91h12.45l-21.2,13.02,22.74,14.72h-12.45l-20.03-13.57v13.57h-7.57v-27.74h7.57Z"/>
  </g>
  <g>
    <path class="st0" d="M0,35.49v46.29s35.18-34.69,36.16-35.68c4.43-4.48,9.06-4.12,8.95,1.37,0,.37.02,6.61.02,6.61V4.98c0-4.02-5.98-7.36-10.54-2.76C30.86,5.99,0,35.49,0,35.49Z"/>
    <path class="st0" d="M90.24,37.8c0-6.74-5.69-5.95-8.97-2.63-.98.99-36.15,35.68-36.16,35.68v10.93s35.18-34.69,36.16-35.68c3.28-3.32,8.97-4.11,8.97,2.63,0,0,0-19.64,0-10.93Z"/>
    <g>
      <path class="st0" d="M89.66,2.83c-.25-.44-.57-.85-.94-1.21-.25-.24-.54-.45-.83-.65-.07-.05-.15-.1-.23-.14-.31-.18-.63-.35-.97-.48-.9-.33-1.92-.44-2.96-.29.15-.02.3-.06.45-.07-.3.02-.59.07-.89.13-.3.07-.6.16-.9.28-.91.35-1.81.94-2.66,1.8-3.72,3.76-34.59,33.76-34.59,33.76v22.41s.04-.04.1-.09c.07-.07.19-.19.35-.34.36-.36.95-.94,1.71-1.68.4-.4.85-.84,1.35-1.33.52-.52,1.1-1.08,1.71-1.69,1.98-1.95,4.38-4.32,6.97-6.88.59-.58,1.18-1.16,1.78-1.76,5.1-5.03,10.65-10.5,14.93-14.73.83-.82,1.61-1.59,2.33-2.3,1.63-1.61,2.96-2.92,3.82-3.77.41-.41.73-.72.91-.91.1-.09.16-.16.19-.19,3.28-3.32,8.97-4.11,8.97,2.63V4.97c0-.75-.21-1.48-.58-2.14Z"/>
      <path class="st0" d="M88.72,1.62c-.25-.24-.53-.45-.83-.65.3.19.58.41.83.65Z"/>
      <path class="st0" d="M87.66.83c-.31-.18-.63-.35-.97-.48.34.13.67.29.97.48Z"/>
    </g>
    <path class="st0" d="M103.26,61.41c-8.68,0-13.02,4.56-13.02,13.69,0-9.13-4.34-13.69-13.02-13.69,8.68,0,13.02-4.56,13.02-13.69,0,9.13,4.34,13.69,13.02,13.69Z"/>
  </g>
</svg>