<?xml version="1.0" encoding="UTF-8"?>
<svg id="_图层_1" data-name="图层 1" xmlns="http://www.w3.org/2000/svg" viewBox="0 0 192 192">
  <defs>
    <style>
      .cls-1 {
        fill: #fff;
      }

      .cls-2 {
        fill: #131313;
      }
    </style>
  </defs>
  <rect class="cls-1" width="192" height="192"/>
  <g>
    <g>
      <path class="cls-2" d="M49.18,127.98v20.8h-5.68v-13.18l-8.47,11.31h-4.87l-8.47-11.31v13.18h-5.68v-20.8h5.89l10.69,14.58,10.69-14.58h5.91Z"/>
      <path class="cls-2" d="M79.11,127.98v4.63h-20.01v3.4h17.34v4.56h-17.34v3.58h20.01v4.63h-25.69v-20.8h25.69Z"/>
      <path class="cls-2" d="M103.45,127.98c2.01,0,3.74.65,5.16,1.94,1.43,1.3,2.14,2.86,2.14,4.69,0,1.69-.62,3.16-1.85,4.4-1.24,1.21-2.77,1.93-4.62,2.14l6.77,7.62h-6.61l-6.26-7.55h-9.49v7.55h-5.68v-20.8h20.42ZM88.71,136.65h14.2c.67.01,1.2-.18,1.59-.56.42-.39.63-.88.62-1.46,0-.61-.2-1.09-.62-1.46-.39-.4-.93-.59-1.59-.56h-14.2v4.04Z"/>
      <path class="cls-2" d="M130.88,127.98l13.21,20.8h-6.12l-2.87-4.56h-14.08l-2.9,4.56h-6.1l13.21-20.8h5.65ZM123.82,139.82h8.47l-4.22-6.68-4.25,6.68Z"/>
      <path class="cls-2" d="M151.64,127.98v8.93l13.86-8.93h9.34l-15.9,9.76,17.05,11.04h-9.34l-15.02-10.17v10.17h-5.68v-20.8h5.68Z"/>
    </g>
    <g>
      <path class="cls-2" d="M48.96,75.98v42.74s32.48-32.03,33.38-32.94c4.09-4.13,8.37-3.8,8.26,1.26,0,.34.02,6.1.02,6.1v-45.32c0-3.71-5.52-6.8-9.73-2.54-3.44,3.48-31.93,30.71-31.93,30.71Z"/>
      <path class="cls-2" d="M132.28,78.12c0-6.23-5.25-5.49-8.28-2.43-.9.91-33.38,32.94-33.38,32.94v10.09s32.48-32.03,33.38-32.94c3.03-3.06,8.28-3.8,8.28,2.43,0,0,0-18.13,0-10.09Z"/>
      <g>
        <path class="cls-2" d="M131.74,45.83c-.23-.41-.52-.78-.87-1.11-.23-.22-.49-.42-.77-.6-.07-.04-.14-.09-.21-.13-.28-.17-.58-.32-.9-.44-.83-.31-1.77-.41-2.73-.27.14-.02.28-.05.41-.06-.27.02-.55.06-.83.12-.28.06-.56.15-.83.26-.84.33-1.67.87-2.46,1.66-3.44,3.48-31.93,31.17-31.93,31.17v20.69s.03-.03.09-.09c.07-.07.18-.18.32-.32.34-.33.88-.86,1.58-1.55.37-.37.79-.78,1.25-1.23.48-.48,1.01-1,1.58-1.56,1.83-1.8,4.05-3.99,6.44-6.35.54-.53,1.09-1.07,1.64-1.62,4.71-4.64,9.83-9.7,13.78-13.6.77-.76,1.49-1.47,2.15-2.13,1.51-1.49,2.73-2.7,3.53-3.48.38-.38.67-.66.84-.84.09-.09.15-.15.18-.17,3.03-3.06,8.28-3.8,8.28,2.43v-18.8c0-.7-.19-1.37-.54-1.98Z"/>
        <path class="cls-2" d="M130.87,44.71c-.23-.22-.49-.42-.77-.6.27.18.54.37.77.6Z"/>
        <path class="cls-2" d="M129.89,43.99c-.28-.17-.58-.32-.9-.44.32.12.61.27.9.44Z"/>
      </g>
      <path class="cls-2" d="M144.3,99.92c-8.01,0-12.02,4.21-12.02,12.64,0-8.43-4.01-12.64-12.02-12.64,8.01,0,12.02-4.21,12.02-12.64,0,8.43,4.01,12.64,12.02,12.64Z"/>
    </g>
  </g>
</svg>