<svg width="255" height="60" viewBox="0 0 255 60" fill="none" xmlns="http://www.w3.org/2000/svg">
<path fill-rule="evenodd" clip-rule="evenodd" d="M127.535 9.01543V41.3788H143.867V51.0458H117.327V0.489258L127.535 9.01543ZM22.0976 51.8864C18.1747 51.8864 14.5521 50.9258 11.2297 49.0044C7.90729 47.0429 5.26538 44.401 3.30396 41.0786C1.38257 37.7562 0.421875 34.1336 0.421875 30.2108C0.421875 26.2879 1.38257 22.6653 3.30396 19.3429C5.26538 16.0205 7.90729 13.3986 11.2297 11.4772C14.5521 9.51579 18.1747 8.53508 22.0976 8.53508C26.0204 8.53508 29.643 9.51579 32.9654 11.4772C36.2878 13.3986 38.9097 16.0205 40.8311 19.3429C42.7925 22.6653 43.7732 26.2879 43.7732 30.2108C43.7732 34.1336 42.7925 37.7562 40.8311 41.0786C38.9097 44.401 36.2878 47.0429 32.9654 49.0044C29.643 50.9258 26.0204 51.8864 22.0976 51.8864ZM22.0976 41.619C24.1791 41.619 26.0804 41.1187 27.8017 40.1179C29.563 39.0772 30.944 37.6962 31.9447 35.9749C32.9854 34.2137 33.5058 32.2923 33.5058 30.2108C33.5058 28.1293 32.9854 26.2279 31.9447 24.5066C30.944 22.7454 29.563 21.3443 27.8017 20.3036C26.0804 19.2628 24.1791 18.7425 22.0976 18.7425C20.0161 18.7425 18.0947 19.2628 16.3334 20.3036C14.6121 21.3443 13.2311 22.7454 12.1904 24.5066C11.1496 26.2279 10.6293 28.1293 10.6293 30.2108C10.6293 32.2923 11.1496 34.2137 12.1904 35.9749C13.2311 37.6962 14.6121 39.0772 16.3334 40.1179C18.0947 41.1187 20.0161 41.619 22.0976 41.619ZM77.0148 28.4095C78.2157 29.6103 79.1563 31.0113 79.8368 32.6125C80.5173 34.2137 80.8576 35.9149 80.8576 37.7162C80.8576 40.1179 80.2772 42.3395 79.1163 44.381C77.9955 46.3825 76.4544 47.9836 74.493 49.1845C72.5716 50.3854 70.4701 50.9858 68.1884 50.9858H58.4614V51.0458H48.254V9.01543H67.1677C69.3292 9.01543 71.3307 9.59585 73.172 10.7567C75.0133 11.8775 76.4744 13.3986 77.5552 15.32C78.636 17.2013 79.1764 19.2228 79.1764 21.3844C79.1764 23.9462 78.4558 26.2879 77.0148 28.4095ZM58.4614 18.6824V24.7468H67.1677C67.8482 24.7468 68.4486 24.4866 68.969 23.9662C69.5294 23.4058 69.8096 22.6853 69.8096 21.8047C69.8096 20.884 69.5294 20.1435 68.969 19.5831C68.4486 18.9826 67.8482 18.6824 67.1677 18.6824H58.4614ZM68.1884 41.3188C68.989 41.3188 69.6895 40.9585 70.2899 40.238C70.8904 39.4775 71.1906 38.6168 71.1906 37.6562C71.1906 36.6955 70.8904 35.8548 70.2899 35.1343C69.6895 34.3738 68.989 33.9935 68.1884 33.9935H58.4614V41.3188H68.1884ZM95.109 41.3788V34.4138H108.2L109.76 24.7468H95.109V18.6824L108.2 18.7425L111.261 9.01543H84.9016V51.0458H111.561L108.2 41.3788H95.109ZM148.229 33.1829V51.0458L158.436 59.8122V20.9039H148.229V33.1829ZM148.229 18.5022H158.436V9.01543H143.867L148.229 15.32V18.5022ZM179.41 51.8864C175.207 51.8864 171.685 50.9658 168.843 49.1244C166.001 47.2431 163.979 44.7213 162.778 41.559L171.365 36.5153C172.125 38.3567 173.166 39.7176 174.487 40.5983C175.808 41.4389 177.529 41.8592 179.651 41.8592C181.172 41.8592 182.373 41.5189 183.253 40.8385C184.134 40.1179 184.574 39.3374 184.574 38.4968C184.574 37.8163 184.374 37.2559 183.974 36.8155C183.573 36.3752 182.833 35.9349 181.752 35.4946C180.711 35.0142 179.13 34.4738 177.009 33.8734C173.246 32.7926 170.224 31.2515 167.942 29.2501C165.66 27.2486 164.52 24.4266 164.52 20.7839C164.52 18.2221 165.16 16.0005 166.441 14.1191C167.722 12.1977 169.423 10.7367 171.545 9.73595C173.706 8.69519 176.008 8.17482 178.45 8.17482C181.892 8.17482 184.894 8.99541 187.456 10.6366C190.058 12.2378 192.1 14.5594 193.581 17.6016L184.814 22.7053C184.094 21.1442 183.213 20.0234 182.172 19.3429C181.172 18.6624 179.931 18.3222 178.45 18.3222C177.489 18.3222 176.628 18.5623 175.868 19.0427C175.107 19.523 174.727 20.1035 174.727 20.7839C174.727 21.3844 174.867 21.9048 175.147 22.3451C175.428 22.7454 176.028 23.1857 176.949 23.666C177.909 24.1063 179.33 24.6267 181.212 25.2272C185.295 26.4681 188.577 28.1293 191.059 30.2108C193.541 32.2522 194.782 35.2144 194.782 39.0972C194.782 41.6991 194.101 43.9607 192.74 45.8821C191.419 47.8035 189.578 49.2846 187.216 50.3253C184.894 51.3661 182.293 51.8864 179.41 51.8864ZM225.283 51.0458H238.012L211.835 29.2501L236.03 9.01543H223.061L210.212 26.9684V9.01543H200.004V51.0458H210.212V41.1387V33.1829L225.283 51.0458Z" fill="black"/>
<path d="M254.828 9.01502L248.824 11.4168L242.819 9.01502L248.824 6.61328L254.828 9.01502Z" fill="#FFD774"/>
<path d="M148.25 15.3192L143.867 9.01465H158.458V18.5015H148.25V15.3192Z" fill="#FFD774" stroke="#FFD774"/>
</svg>
